<svg xmlns="http://www.w3.org/2000/svg" xmlns:xlink="http://www.w3.org/1999/xlink" width="396" height="224.159" viewBox="0 0 396 224.159"><path fill="#553023" d="M33.547 157.025h325.548v67.134H33.547z"/><defs><path id="a" d="M-18-24h432v359H-18z"/></defs><clipPath id="b"><use xlink:href="#a" overflow="visible"/></clipPath><path clip-path="url(#b)" fill="#553023" d="M396 177.11s-74.333-6.714-197.77-6.82c-123.437-.107-195.47 6.82-195.47 6.82V3.196S74.985 7.46 198.23 7.46C321.476 7.46 396 3.194 396 3.194V177.11z"/><path clip-path="url(#b)" fill="#FEC401" d="M392.826 173.32s-73.823-6.422-196.414-6.525C73.822 166.692 0 173.32 0 173.32V.22s74.013 4.076 196.412 4.076c122.4 0 196.414-4.076 196.414-4.076V173.32z"/><path clip-path="url(#b)" fill="#B02A27" d="M390.098 171.395s-72.78-6.33-193.636-6.432c-120.86-.1-193.637 6.432-193.637 6.432V2.257s72.967 4.02 193.637 4.02c120.668 0 193.636-4.02 193.636-4.02v169.138z"/><path clip-path="url(#b)" fill="#FFF" d="M73.834 208.553c.166-1.865.622-4.682 1.078-6.465l4.724-18.938h5.056l4.517 19.02c.414 1.824.745 4.228.91 6.218h.374c.125-1.865.622-4.477 1.12-6.3l2.693-10.153c.455-1.657 1.16-3.688 1.823-5.015-.87-.04-2.03-.165-2.818-.373-.207-.704-.415-2.237-.415-3.025h9.532c0 .828-.25 2.403-.498 3.15-.58.123-1.45.248-2.155.29l-7.916 26.15h-4.6l-4.433-18.773c-.414-1.783-.87-4.726-.994-6.757h-.374c-.166 1.99-.622 5.056-1.078 6.88l-4.724 18.65H70.56l-7.293-26.15c-.663-.083-1.616-.25-2.156-.416-.29-.83-.495-2.114-.58-3.025h11.357c0 .828-.29 2.32-.622 3.15-.746.123-2.28.248-3.19.29.62 1.243 1.367 3.273 1.78 4.973l2.53 10.194c.414 1.656.952 4.516 1.076 6.423h.374zM120.085 202.296c0 7.002-3.895 10.98-9.904 10.98-6.34 0-9.904-3.77-9.904-10.98 0-6.424 4.268-10.36 9.905-10.36 5.927 0 9.905 3.688 9.905 10.36m-9.904 7.832c3.357 0 4.973-3.025 4.973-7.832 0-4.146-1.947-7.254-4.972-7.254-3.23 0-5.014 2.9-5.014 7.254 0 4.724 1.907 7.832 5.015 7.832M130.612 196.494c.497-2.404 2.57-4.56 5.346-4.56.622 0 1.492.082 1.99.332.413.62.662 1.823.662 3.067 0 .538-.04 1.077-.165 1.49-.83-.455-2.072-.704-2.985-.704-1.864 0-3.646 1.035-4.682 3.107v9.987c1.2.125 3.15.457 4.06.83.21.58.29 1.822.167 2.526h-12.142c.082-.786.33-1.822.62-2.403.623-.373 1.742-.746 2.53-.994V195.87h-2.943c0-.912.33-2.197.83-2.942.95-.415 2.402-.705 3.81-.705.83 0 1.783.125 2.363.332v3.938h.54zM139.937 185.843c.042-.953.415-2.238.87-2.984.995-.415 2.61-.705 4.186-.705.87 0 1.99.124 2.652.373v26.813c.954.083 2.362.373 3.19.664.126.54.167 1.076.167 1.615 0 .372-.04.704-.082.952h-11.19c.083-.787.332-1.823.622-2.403.62-.374 1.7-.747 2.527-.994v-23.333h-2.943zM167.165 185.843h-2.942c.04-.953.414-2.238.87-2.985 1.036-.413 2.61-.702 4.186-.702.87 0 1.988.122 2.65.372v23.788c0 1.035.125 2.278.374 3.107h2.983c.042.208.042.455.042.622 0 .663-.208 1.658-.498 2.196-1.575.498-4.6.83-6.258.83-.497-.87-.83-1.947-.953-3.107h-.29c-.994 1.657-2.734 3.314-6.257 3.314-3.605 0-7.75-2.486-7.75-9.946 0-6.878 4.103-11.395 10.03-11.395 1.49 0 2.9.372 3.812 1.037v-7.13zm.083 9.904c-.83-.373-1.906-.58-2.984-.58-4.103 0-5.968 2.983-5.968 7.46 0 4.6 1.99 7.086 4.766 7.086 2.03 0 3.4-1.12 4.186-2.197v-11.77zM197.21 196.286l5.097-7.004c.498-.705 1.492-1.823 2.113-2.32-.745-.083-1.988-.208-2.567-.332-.25-.87-.374-2.362-.374-3.107h10.524c-.04.91-.29 2.32-.663 3.23-.703.126-1.78.21-2.525.25l-8.04 10.318 9.614 11.937 2.692-.167c0 1.078-.33 2.653-.746 3.482-1.285.332-3.73.663-5.264.788l-10.608-14.05H194.6v9.78c1.035.085 2.32.25 3.15.456.206.705.29 2.363.165 3.025h-12.06c.083-.828.373-2.236.663-2.94.705-.208 2.238-.498 3.067-.58v-22.09c-.912-.082-2.238-.25-2.943-.372-.124-.87-.165-2.155-.04-3.066h10.98c.167.663.125 2.32-.082 3.024-.704.165-2.03.332-2.9.373v9.365h2.61zM215.113 195.87c.042-.91.415-2.236.872-2.94.995-.415 2.61-.705 4.185-.705.912 0 2.03.125 2.694.332v16.784c.953.083 2.32.373 3.107.663.126.54.166 1.077.166 1.616 0 .372-.04.704-.082.952h-11.106c.083-.787.332-1.823.622-2.403.622-.374 1.7-.747 2.527-.994V195.87h-2.984zm8.414-10.855c0 1.988-1.202 3.107-2.942 3.107-1.948 0-2.985-1.077-2.985-3.107 0-1.742 1.245-2.902 2.985-2.902s2.942 1.077 2.942 2.902M231.07 187.46c.828-.458 2.652-.83 3.854-.83v6.01h5.886c.123.622.29 2.278.165 3.19h-6.05v10.36c0 2.487.663 3.44 2.65 3.44 1.12 0 2.652-.25 3.855-.54.042.208.042.54.042.623 0 .745-.25 1.656-.663 2.36-1.618.788-3.772 1.203-5.39 1.203-3.563 0-5.345-1.824-5.345-6.382 0-2.57.083-7.294.29-11.066h-2.984c0-.745.29-2.237.623-2.94.663-.332 1.615-.664 2.362-.83l.705-4.6zM255.812 195.457c-.663-.29-1.325-.455-1.947-.455-3.19 0-5.512 2.237-5.512 7.21 0 5.18 2.526 7.543 6.01 7.543 1.74 0 4.02-.497 5.51-1.12.083.87-.25 2.28-.787 3.108-1.616.83-4.144 1.534-6.506 1.534-5.72 0-9.325-4.31-9.325-10.278 0-6.466 4.353-11.065 10.692-11.065 2.32 0 4.353.58 5.967 1.492.085.415.125 1.16.125 1.657 0 1.368-.29 2.942-.706 4.02-1.034 0-2.69-.415-3.52-.87v-2.777zM270.315 209.34c.912.125 2.197.373 2.86.663.167.58.25 1.865.124 2.57h-10.9c.083-.788.332-1.823.622-2.405.62-.373 1.74-.745 2.528-.992v-23.333h-2.942c.042-.953.414-2.237.87-2.984 1.037-.414 2.652-.704 4.185-.704.87 0 1.99.123 2.652.372v7.17c0 1.822-.123 4.062-.29 6.01h.497c.83-2.033 2.943-3.772 6.507-3.772 3.398 0 6.506 1.037 6.506 7.502 0 3.27-.083 6.754-.29 9.903.995.084 2.32.374 3.15.664.124.54.165 1.077.165 1.617 0 .373-.04.705-.082.953h-10.484c.082-.787.29-1.822.538-2.404.54-.374 1.534-.746 2.197-.993v-8.91c0-2.82-.954-4.685-3.606-4.685-2.114 0-3.937 1.41-4.81 2.735v11.023zM292.944 203.456c.208 3.854 2.653 6.133 6.258 6.133 1.824 0 4.6-.54 6.135-1.12.082.87-.29 2.363-.788 3.15-1.493.827-4.022 1.657-6.798 1.657-6.217 0-9.78-4.435-9.78-10.278 0-6.3 3.978-11.065 10.07-11.065 5.305 0 7.502 3.69 7.502 9.284 0 .702-.042 1.49-.125 2.236h-12.476zm7.915-3.067c.25-2.53-.54-5.553-3.522-5.553-2.528 0-4.228 2.277-4.476 5.552h7.997zM316.402 209.34c.91.125 2.195.373 2.857.663.166.58.25 1.865.124 2.57h-10.898c.082-.788.332-1.823.622-2.405.622-.373 1.74-.745 2.526-.992V195.87h-2.983c.043-.91.416-2.235.873-2.94.91-.415 2.36-.705 3.812-.705.828 0 1.782.125 2.362.332v3.15h.538c.912-1.783 3.024-3.772 6.714-3.772 3.356 0 6.464 1.037 6.464 7.502 0 3.27-.125 6.712-.29 9.903.995.083 2.32.373 3.15.663.124.54.165 1.077.165 1.617 0 .372-.042.704-.084.952H321.83c.082-.787.29-1.822.58-2.404.54-.373 1.492-.745 2.155-.992v-8.91c0-2.82-.91-4.685-3.563-4.685-1.907 0-3.73 1.286-4.6 2.488v11.272z"/><path clip-path="url(#b)" fill="#553023" d="M30.718 34.334h16.066L54.5 55.788c2.298 6.378 4.06 11.892 5.293 16.552h.825l-.39-11.455v-26.55H75.37v67.71H59.354l-7.72-21.453c-2.295-6.373-4.06-11.908-5.29-16.6h-.87l.386 11.455v26.598H30.718v-67.71z"/><path clip-path="url(#b)" fill="#FFF" d="M27.613 31.48h16.065l7.72 21.522c2.297 6.398 4.06 11.93 5.29 16.605h.825l-.39-11.49V31.48H72.27v67.93H56.25l-7.716-21.525c-2.3-6.396-4.062-11.948-5.29-16.652h-.874l.388 11.49V99.41H27.613V31.48z"/><path clip-path="url(#b)" fill="#553023" d="M106.95 34.448c8.187 0 14.645 2.986 19.367 8.955 4.725 5.97 7.087 14.127 7.087 24.47 0 10.375-2.377 18.65-7.133 24.822-4.76 6.173-10.924 9.26-18.493 9.26-7.864 0-13.95-3.203-18.252-9.613-4.302-6.404-6.455-14.39-6.455-23.952 0-6.627 1.052-12.574 3.155-17.84 2.1-5.263 5.05-9.264 8.832-12 3.787-2.733 7.754-4.102 11.893-4.102m1.7 13.784c-3.172 0-5.6 1.766-7.28 5.296-1.682 3.53-2.526 8.362-2.526 14.487 0 6.218.816 11.102 2.453 14.648 1.634 3.548 3.89 5.32 6.77 5.32 2.847 0 5.13-1.827 6.842-5.484 1.716-3.66 2.573-8.532 2.573-14.626 0-6.315-.867-11.164-2.596-14.558-1.732-3.39-3.81-5.084-6.238-5.084"/><path clip-path="url(#b)" fill="#FFF" d="M104.256 31.52c8.188 0 14.64 3.005 19.368 9.013 4.724 6.005 7.087 14.217 7.087 24.63 0 10.442-2.38 18.767-7.135 24.98-4.76 6.214-10.923 9.317-18.49 9.317-7.866 0-13.95-3.222-18.252-9.672-4.305-6.447-6.457-14.483-6.457-24.11 0-6.666 1.052-12.65 3.155-17.95 2.104-5.3 5.048-9.327 8.833-12.077 3.787-2.752 7.75-4.13 11.893-4.13m1.7 13.872c-3.17 0-5.597 1.778-7.28 5.33-1.68 3.556-2.526 8.415-2.526 14.58 0 6.26.82 11.176 2.453 14.742 1.634 3.573 3.89 5.355 6.77 5.355 2.847 0 5.132-1.838 6.845-5.52 1.714-3.68 2.574-8.585 2.574-14.717 0-6.355-.867-11.238-2.596-14.65-1.733-3.415-3.814-5.12-6.24-5.12"/><path clip-path="url(#b)" fill="#553023" d="M162.44 34.448c8.188 0 14.646 2.986 19.368 8.955 4.725 5.97 7.087 14.127 7.087 24.47 0 10.375-2.377 18.65-7.135 24.822-4.755 6.173-10.92 9.26-18.492 9.26-7.866 0-13.95-3.203-18.25-9.613-4.304-6.404-6.457-14.39-6.457-23.952 0-6.627 1.053-12.574 3.156-17.84 2.103-5.263 5.05-9.264 8.834-12 3.787-2.733 7.752-4.102 11.89-4.102m1.7 13.784c-3.17 0-5.597 1.766-7.28 5.296-1.68 3.53-2.522 8.362-2.522 14.487 0 6.218.814 11.102 2.45 14.648 1.635 3.548 3.892 5.32 6.773 5.32 2.85 0 5.128-1.827 6.845-5.484 1.713-3.66 2.573-8.532 2.573-14.626 0-6.315-.867-11.164-2.596-14.558-1.736-3.39-3.815-5.084-6.24-5.084"/><path clip-path="url(#b)" fill="#FFF" d="M159.885 31.52c8.187 0 14.644 3.005 19.37 9.013 4.724 6.005 7.084 14.217 7.084 24.63 0 10.442-2.378 18.767-7.134 24.98-4.758 6.214-10.922 9.317-18.495 9.317-7.863 0-13.944-3.222-18.248-9.672-4.305-6.447-6.457-14.483-6.457-24.11 0-6.666 1.054-12.65 3.155-17.95 2.103-5.3 5.05-9.327 8.834-12.077 3.788-2.752 7.752-4.13 11.89-4.13m1.7 13.872c-3.17 0-5.593 1.778-7.278 5.33-1.683 3.556-2.524 8.415-2.524 14.58 0 6.26.813 11.176 2.45 14.742 1.634 3.573 3.89 5.355 6.77 5.355 2.85 0 5.13-1.838 6.845-5.52 1.714-3.68 2.573-8.585 2.573-14.717 0-6.355-.866-11.238-2.595-14.65-1.736-3.415-3.81-5.12-6.24-5.12"/><path clip-path="url(#b)" fill="#553023" d="M195.97 34.335h19.752c5.922 0 10.84 1.39 14.757 4.175 3.914 2.783 6.702 6.747 8.372 11.89 1.665 5.146 2.496 10.823 2.496 17.037 0 10.452-2.352 18.832-7.06 25.144-4.71 6.31-11.61 9.465-20.7 9.465H195.97v-67.71zm15.774 13.154v41.304h1.116c8.187 0 12.277-7.41 12.277-22.23 0-5.726-.883-10.337-2.644-13.834-1.764-3.493-4.653-5.24-8.666-5.24h-2.083z"/><path clip-path="url(#b)" fill="#FFF" d="M193 31.548h19.76c5.918 0 10.836 1.397 14.75 4.185 3.916 2.79 6.706 6.76 8.376 11.917 1.664 5.156 2.498 10.847 2.498 17.074 0 10.474-2.355 18.873-7.062 25.197-4.71 6.326-11.61 9.487-20.704 9.487H193v-67.86zm15.775 13.185v41.394h1.115c8.188 0 12.283-7.426 12.283-22.28 0-5.737-.885-10.36-2.646-13.862-1.765-3.5-4.653-5.252-8.666-5.252h-2.085z"/><path clip-path="url(#b)" fill="#553023" d="M248.257 34.48h15.822v53.877h21.743v13.832h-37.566"/><path clip-path="url(#b)" fill="#FFF" d="M245.29 31.57h15.822v54.076h21.743V99.48H245.29"/><path clip-path="url(#b)" fill="#553023" d="M290.852 34.334h38.587v13.64h-22.814V60.45h21.26v13.2h-21.26v14.563h22.813v13.832H290.85"/><path clip-path="url(#b)" fill="#FFF" d="M288.16 31.52h38.585V45.2h-22.81v12.515h21.258V70.96h-21.258v14.61h22.81v13.876H288.16"/><path clip-path="url(#b)" fill="#553023" d="M334.952 81.34c5.21 4.695 10.126 7.044 14.757 7.044 2.36 0 4.38-.736 6.065-2.205 1.68-1.472 2.522-3.258 2.522-5.357 0-1.688-.6-3.194-1.795-4.504-1.23-1.318-.448-5.72-3.81-7.36-4.75-2.266-10.535-4.36-13.03-7.143-2.53-2.786-4.71-3.823-4.71-8.106 0-5.44 1.97-10.03 5.918-13.765 3.948-3.737 9.177-5.606 15.68-5.606 4.465 0 9.107 1.158 13.933 3.476V53.45c-4.272-3.975-8.366-5.962-12.28-5.962-1.942 0-3.627.562-5.05 1.69-1.422 1.127-2.136 2.492-2.136 4.086 0 1.566.58 2.91 1.748 4.04 1.133 1.123 3.236 2.346 6.307 3.662 5.08 2.19 8.933 4.695 11.554 7.51 2.622 2.85 3.93 6.688 3.93 11.507 0 6.072-2.257 11.253-6.77 15.54-4.512 4.288-10.022 6.432-16.525 6.432-5.047 0-10.483-1.47-16.308-4.412V81.34z"/><path clip-path="url(#b)" fill="#FFF" d="M332.533 78.8c5.21 4.724 10.126 7.085 14.757 7.085 2.36 0 4.382-.74 6.066-2.22 1.682-1.48 2.522-3.275 2.522-5.384 0-1.7-.6-3.21-1.795-4.533-1.23-1.324-3.522-2.807-6.883-4.456-4.754-2.28-8.376-4.824-10.874-7.622-2.53-2.798-3.794-6.35-3.794-10.66 0-5.474 1.973-10.09 5.922-13.85 3.948-3.756 9.172-5.636 15.68-5.636 4.465 0 9.107 1.167 13.93 3.497v15.724c-4.273-3.996-8.367-5.998-12.28-5.998-1.942 0-3.627.568-5.048 1.7-1.428 1.134-2.14 2.505-2.14 4.11 0 1.576.583 2.93 1.748 4.062 1.134 1.134 3.236 2.362 6.31 3.685 5.078 2.206 8.932 4.728 11.554 7.558 2.62 2.867 3.932 6.724 3.932 11.573 0 6.107-2.257 11.318-6.768 15.632-4.515 4.31-10.026 6.468-16.53 6.468-5.046 0-10.483-1.48-16.31-4.44V78.8z"/><path clip-path="url(#b)" fill="#553023" d="M178.935 112.41c4.244 0 7.594 1.546 10.04 4.642 2.454 3.097 3.68 7.325 3.68 12.69 0 5.38-1.24 9.672-3.703 12.872-2.465 3.202-5.664 4.802-9.59 4.802-4.076 0-7.23-1.662-9.464-4.983-2.23-3.324-3.348-7.465-3.348-12.423 0-3.434.547-6.52 1.636-9.25 1.09-2.732 2.62-4.807 4.583-6.223 1.96-1.418 4.016-2.128 6.165-2.128m.88 7.148c-1.643 0-2.9.915-3.778 2.746-.868 1.83-1.307 4.334-1.307 7.51 0 3.226.424 5.758 1.275 7.598.844 1.84 2.013 2.757 3.507 2.757 1.48 0 2.66-.947 3.55-2.842.89-1.898 1.333-4.426 1.333-7.586 0-3.273-.448-5.788-1.343-7.55-.9-1.756-1.978-2.634-3.238-2.634"/><path clip-path="url(#b)" fill="#FFF" d="M177.802 110.9c4.214 0 7.54 1.545 9.972 4.64 2.433 3.094 3.65 7.32 3.65 12.683 0 5.375-1.224 9.664-3.672 12.86-2.45 3.203-5.626 4.802-9.523 4.802-4.053 0-7.184-1.66-9.4-4.982-2.216-3.32-3.323-7.46-3.323-12.414 0-3.434.54-6.515 1.623-9.244 1.082-2.73 2.6-4.804 4.546-6.222 1.95-1.413 3.994-2.125 6.126-2.125m.875 7.144c-1.633 0-2.882.915-3.75 2.742-.863 1.832-1.3 4.333-1.3 7.51 0 3.22.423 5.753 1.265 7.592.838 1.84 2 2.755 3.483 2.755 1.47 0 2.643-.948 3.525-2.842.883-1.895 1.33-4.42 1.33-7.577 0-3.272-.45-5.787-1.34-7.543-.895-1.76-1.965-2.636-3.213-2.636"/><path clip-path="url(#b)" fill="#553023" d="M164.584 146.095c-2.03.932-3.964 1.395-5.788 1.395-3.95 0-7.086-1.67-9.418-5.013-2.33-3.336-3.5-7.494-3.5-12.465 0-3.062.5-5.963 1.5-8.7 1-2.737 2.55-4.924 4.646-6.56 2.1-1.64 4.493-2.458 7.196-2.458 1.66 0 3.452.415 5.364 1.25v8.357c-1.33-1.272-2.758-2.47-4.28-2.47-1.897 0-3.395.93-4.493 2.787-1.1 1.858-1.646 4.546-1.646 8.064 0 3.017.546 5.433 1.647 7.25 1.1 1.816 2.555 2.726 4.368 2.726 1.325 0 2.793-.614 4.406-1.834v7.673z"/><path clip-path="url(#b)" fill="#FFF" d="M163.318 144.503c-2.016.923-3.932 1.382-5.75 1.382-3.917 0-7.03-1.655-9.343-4.973-2.32-3.314-3.48-7.437-3.48-12.37 0-3.04.5-5.92 1.492-8.636.99-2.714 2.525-4.885 4.61-6.51 2.08-1.626 4.464-2.44 7.15-2.44 1.648 0 3.42.413 5.32 1.237v7.738c-1.313-1.26-2.73-1.892-4.248-1.892-1.883 0-3.368.922-4.462 2.767-1.09 1.843-1.637 4.51-1.637 8.006 0 2.99.548 5.388 1.638 7.192 1.094 1.802 2.537 2.702 4.336 2.702 1.316 0 2.774-.605 4.374-1.818v7.617z"/><path clip-path="url(#b)" fill="#553023" d="M196.33 112.42h8.962l4.905 13.442 4.913-13.44h8.985v35.114h-8.006v-13.14c0-3.32.136-6.694.4-10.118h-.603c-.353 1.695-1.046 4.03-2.088 6.997l-3.605 10.246-3.57-10.245c-1.043-2.985-1.737-5.317-2.092-6.997h-.627c.284 3.17.43 6.544.43 10.12v13.138h-8.007V112.42z"/><path clip-path="url(#b)" fill="#FFF" d="M194.823 110.99h8.896l4.874 13.347 4.874-13.346h8.924v34.867h-7.948v-13.045c0-3.3.134-6.65.4-10.05h-.602c-.35 1.684-1.04 4-2.073 6.95l-3.576 10.172-3.546-10.173c-1.036-2.965-1.726-5.28-2.077-6.948h-.624c.285 3.15.425 6.5.425 10.05v13.045h-7.946V110.99z"/><path clip-path="url(#b)" fill="#553023" d="M228.604 112.422h12.512c3.236 0 5.746.87 7.524 2.605 1.778 1.737 2.668 4.2 2.668 7.39 0 1.66-.294 3.324-.88 4.993-.583 1.673-1.82 3.123-3.706 4.357-1.886 1.233-4.25 1.85-7.097 1.85h-2.765v13.92h-8.257v-35.115zm8.256 6.77v7.528h1.806c1.334 0 2.403-.35 3.194-1.044.797-.697 1.19-1.674 1.19-2.93 0-1.196-.305-2.084-.912-2.67-.612-.588-1.526-.883-2.744-.883h-2.534z"/><path clip-path="url(#b)" fill="#FFF" d="M226.858 110.99h12.425c3.215 0 5.707.864 7.47 2.587 1.767 1.727 2.65 4.17 2.65 7.336 0 1.65-.292 3.306-.873 4.96-.582 1.66-1.81 3.103-3.68 4.326-1.87 1.222-4.22 1.835-7.046 1.835h-2.75v13.823h-8.196V110.99zm8.198 6.725v7.475h1.794c1.327 0 2.386-.347 3.173-1.04.79-.69 1.185-1.663 1.185-2.91 0-1.184-.306-2.066-.91-2.65-.605-.582-1.514-.875-2.726-.875h-2.516z"/><path clip-path="url(#b)" fill="#553023" d="M257.715 112.42h8.436l9.247 35.116h-9.21l-1.248-6.972h-6.73l-1.285 6.972h-8.383l9.173-35.115zm3.9 9.595l-2.253 12.257h4.45l-2.197-12.257z"/><path clip-path="url(#b)" fill="#FFF" d="M255.755 110.99h8.08l9.184 34.867h-8.853l-1.238-6.925h-6.686l-1.274 6.925h-8.322l9.107-34.867zm3.875 9.523l-2.235 12.174h4.417l-2.182-12.174z"/><path clip-path="url(#b)" fill="#553023" d="M277.367 112.42h8.33l4.002 11.128c1.19 3.307 2.104 6.166 2.742 8.58h.43l-.202-5.937v-13.77h7.852v35.116h-8.305l-4-11.126c-1.194-3.305-2.11-6.175-2.746-8.61h-.452l.203 5.942v13.794h-7.853V112.42z"/><path clip-path="url(#b)" fill="#FFF" d="M275.257 110.99h8.27l3.98 11.05c1.183 3.28 2.09 6.124 2.722 8.52h.425l-.202-5.896V110.99h7.8v34.867h-8.246l-3.977-11.047c-1.184-3.282-2.088-6.13-2.72-8.548h-.454l.2 5.9v13.695h-7.8V110.99z"/><path clip-path="url(#b)" fill="#553023" d="M303.294 112.42h9.238l2.996 11.13 2.942-11.13h9.366l-8.282 19.033v16.084h-8.207v-16.084"/><path clip-path="url(#b)" fill="#FFF" d="M300.995 110.99h9.172l2.976 11.05 2.922-11.05h9.298l-8.224 18.896v15.97h-8.15v-15.97"/><path clip-path="url(#b)" fill="#553023" d="M139.175 131.24c0 11.616-9.413 21.03-21.027 21.03-11.62 0-21.035-9.414-21.035-21.03 0-11.617 9.416-21.03 21.035-21.03 11.614 0 21.027 9.413 21.027 21.03"/><path clip-path="url(#b)" fill="#FEC401" d="M137.834 128.562c0 11.613-9.412 21.032-21.024 21.032-11.62 0-21.037-9.42-21.037-21.032 0-11.618 9.416-21.03 21.037-21.03 11.612 0 21.024 9.412 21.024 21.03"/><path clip-path="url(#b)" fill="#553023" d="M122.43 138.17c-.454-1.188.232-3.417-.95-2.963-1.19.455-1.778 1.782-1.325 2.97.097.25.196.496.305.74-.758.473-1.71.853-2.695.853-2.93-.002-5.306-2.366-5.312-5.257.006-2.934 2.38-5.31 5.312-5.315H119.57v-4.585h-1.858c-1.667-.006-3.012-1.357-3.017-3.017.005-1.658 1.35-3.018 3.036-3.018 1.52.007 2.65 1 2.933 2.484v.01c.01 1.235 1.025 2.23 2.26 2.232.837 0 1.57-.45 1.956-1.127l.013.004.097-.18c.132-.252.185-.612.188-1.08-.003-1.128-.375-2.84-1.5-4.3-1.122-1.463-3.018-2.636-5.97-2.634-4.19 0-7.596 3.408-7.596 7.607 0 1.697.57 3.32 1.643 4.68l.21.253-.263.2c-2.4 1.833-3.834 4.734-3.834 7.783 0 5.423 4.408 9.84 9.863 9.84 1.79-.004 3.782-.59 5.096-1.482-.378-1.808 1.528.32-.397-4.7"/><path clip-path="url(#b)" fill="#FFF" d="M123.068 135.465c-.454-1.19-1.783-1.78-2.967-1.326-1.187.454-1.777 1.78-1.325 2.97.1.248.198.496.307.74-.76.47-1.71.85-2.695.85-2.932 0-5.307-2.364-5.312-5.256.005-2.933 2.38-5.306 5.312-5.313h1.804v-4.584h-1.856c-1.667-.006-3.012-1.356-3.016-3.018.004-1.657 1.35-3.017 3.034-3.017 1.52.01 2.65 1.002 2.933 2.487v.01c.01 1.234 1.024 2.228 2.26 2.23.836 0 1.57-.447 1.957-1.127l.012.006.098-.18c.132-.25.184-.613.187-1.08-.004-1.128-.376-2.838-1.502-4.3-1.12-1.462-3.017-2.636-5.966-2.632-4.192 0-7.598 3.407-7.598 7.604 0 1.698.57 3.322 1.642 4.682l.21.252-.262.2c-2.4 1.833-3.836 4.735-3.836 7.782 0 5.424 4.41 9.84 9.864 9.84 1.79-.004 3.782-.59 5.094-1.48 1.51 1.916 3.73 3.525 6.218 4.704 1.536-.93 2.95-2.04 4.195-3.32-3.942-1.352-7.43-4.173-8.792-7.723"/><path clip-path="url(#b)" fill="#553023" d="M332 112.432c.844 0 1.532.28 2.063.84.53.558.797 1.21.797 1.95 0 .767-.273 1.424-.82 1.97-.545.545-1.2.818-1.967.818s-1.423-.273-1.97-.82c-.545-.548-.818-1.203-.818-1.967 0-.53.138-1.016.413-1.46.276-.446.63-.78 1.06-1 .433-.22.846-.33 1.242-.33m.14.545c-.67 0-1.22.222-1.652.668-.432.445-.65.97-.65 1.577 0 .618.222 1.147.66 1.584.437.438.965.657 1.585.657.614 0 1.14-.22 1.58-.658.44-.44.66-.967.66-1.583 0-.643-.23-1.178-.682-1.605-.453-.427-.952-.64-1.5-.64m-1.326 3.733v-2.957h1.406c.35 0 .603.082.76.245.156.164.234.36.234.592 0 .228-.065.41-.197.55-.134.137-.332.23-.6.28.12.045.215.108.288.187.073.078.186.25.338.51l.35.594h-.742l-.247-.476c-.148-.283-.278-.478-.39-.582-.112-.104-.26-.156-.44-.156h-.16v1.215h-.6zm.6-1.68h.486c.246 0 .42-.032.522-.096.104-.065.155-.17.155-.32 0-.13-.05-.228-.153-.292-.102-.064-.257-.096-.463-.096h-.547v.804z"/></svg>